<?xml version="1.0" encoding="UTF-8"?>
<svg xmlns="http://www.w3.org/2000/svg" xmlns:xlink="http://www.w3.org/1999/xlink" width="18pt" height="18pt" viewBox="0 0 18 18" version="1.1">
<g id="surface1">
<path style=" stroke:none;fill-rule:evenodd;fill:rgb(0%,0%,0%);fill-opacity:1;" d="M 8.804688 15.84375 C 4.671875 11.777344 0.734375 8.289062 0.734375 5.277344 C 0.734375 2.496094 2.984375 1.46875 4.609375 1.46875 C 5.570312 1.46875 7.652344 1.835938 8.804688 4.738281 C 9.96875 1.828125 12.078125 1.476562 13.003906 1.476562 C 14.867188 1.476562 16.875 2.664062 16.875 5.277344 C 16.875 8.261719 13.105469 11.605469 8.804688 15.84375 M 13.003906 0.742188 C 11.386719 0.742188 9.746094 1.503906 8.804688 3.117188 C 7.859375 1.496094 6.222656 0.734375 4.609375 0.734375 C 2.273438 0.734375 0 2.339844 0 5.277344 C 0 8.699219 4.089844 12.195312 8.804688 16.875 C 13.523438 12.195312 17.609375 8.699219 17.609375 5.277344 C 17.609375 2.335938 15.339844 0.742188 13.003906 0.742188 "/>
</g>
</svg>
